# AST/ASF file generated using VICON BodyLanguage
# -----------------------------------------------
:version 1.10
:name VICON
:units
  mass 1.0
  length 0.45
  angle deg
:documentation
   .ast/.asf automatically generated from VICON data using
   VICON BodyBuilder and BodyLanguage model FoxedUp or BRILLIANT.MOD
:root
   order TX TY TZ RX RY RZ
   axis XYZ
   position 0 0 0  
   orientation 0 0 0 
:bonedata
  begin
     id 1 
     name lhipjoint
     direction 0.610259 -0.730986 0.305356 
     length 2.50941 
     axis 0 0 0  XYZ
  end
  begin
     id 2 
     name lfemur
     direction 0.34202 -0.939693 0  
     length 7.48822  
     axis 0 0 20  XYZ
    dof rx ry rz
    limits (-160.0 20.0)
           (-70.0 70.0)
           (-60.0 70.0)
  end
  begin
     id 3 
     name ltibia
     direction 0.34202 -0.939693 0   
     length 7.60141   
     axis 0 0 20   XYZ
    dof rx
    limits (-10.0 170.0)
  end
  begin
     id 4 
     name lfoot
     direction 0.0673488 -0.185039 0.980421   
     length 2.04049   
     axis -90 7.62852e-016 20   XYZ
    dof rx rz
    limits (-45.0 90.0)
           (-70.0 20.0)
  end
  begin
     id 5 
     name ltoes
     direction 1.5356e-011 -4.21729e-011 1   
     length 1.02897   
     axis -90 7.62852e-016 20   XYZ
    dof rx
    limits (-90.0 20.0)
  end
  begin
     id 6 
     name rhipjoint
     direction -0.57612 -0.754205 0.315056   
     length 2.43216  
     axis 0 0 0  XYZ 
  end
  begin
     id 7 
     name rfemur
     direction -0.34202 -0.939693 0   
     length 7.42799   
     axis 0 0 -20   XYZ
    dof rx ry rz
    limits (-160.0 20.0)
           (-70.0 70.0)
           (-70.0 60.0)
  end
  begin
     id 8 
     name rtibia
     direction -0.34202 -0.939693 0   
     length 7.69484   
     axis 0 0 -20   XYZ
    dof rx
    limits (-10.0 170.0)
 end
 begin
     id 9 
     name rfoot
     direction -0.111837 -0.30727 0.945028   
     length 2.15769  
     axis -90 -7.62852e-016 -20   XYZ
    dof rx rz
    limits (-45.0 90.0)
           (-20.0 70.0)
  end
  begin
     id 10 
     name rtoes
     direction -1.53539e-011 -4.21878e-011 1   
     length 1.07391   
     axis -90 -7.62852e-016 -20   XYZ
    dof rx
    limits (-90.0 20.0)
  end
  begin
     id 11 
     name lowerback
     direction 0.00552624 0.990109 -0.140195   
     length 2.12403   
     axis 0 0 0   XYZ
    dof rx ry rz
    limits (-20.0 45.0)
           (-30.0 30.0)
           (-30.0 30.0)
  end
  begin
     id 12 
     name upperback
     direction 0.00361898 0.999976 -0.00584723   
     length 2.13232   
     axis 0 0 0   XYZ
    dof rx ry rz
    limits (-20.0 45.0)
           (-30.0 30.0)
           (-30.0 30.0)
  end
  begin
     id 13 
     name thorax
     direction -0.000331275 0.998253 0.0590847   
     length 2.17688   
     axis 0 0 0   XYZ
    dof rx ry rz
    limits (-20.0 45.0)
           (-30.0 30.0)
           (-30.0 30.0)
  end
  begin
     id 14 
     name lowerneck
     direction -0.0561561 0.979832 0.19177   
     length 1.64159   
     axis 0 0 0   XYZ
    dof rx ry rz
    limits (-20.0 45.0)
           (-30.0 30.0)
           (-30.0 30.0)
  end
  begin
     id 15 
     name upperneck
     direction 0.0827153 0.979385 -0.184293   
     length 1.68939   
     axis 0 0 0   XYZ
    dof rx ry rz
    limits (-20.0 45.0)
           (-30.0 30.0)
           (-30.0 30.0)
  end
  begin
     id 16
     name head
     direction 0.0278583 0.995936 -0.0856488  
     length 1.70207  
     axis 0 0 0   XYZ
    dof rx ry rz
    limits (-20.0 45.0)
           (-30.0 30.0)
           (-30.0 30.0)
  end
  begin
     id 17 
     name lclavicle
     direction 0.950993 0.301131 -0.0702275  
     length 3.41652  
     axis 0 0 0   XYZ
    dof ry rz
    limits (-20.0 10.0)
           (0.0 20.0)
  end
  begin
     id 18 
     name lhumerus
     direction 1 -4.48981e-011 -3.9662e-029   
     length 5.32955   
     axis 180 -30 -90   XYZ
    dof rx ry rz
    limits (-60.0 90.0)
           (-90.0 90.0)
           (-90.0 90.0)
  end
  begin
     id 19
     name lradius
     direction 1 -4.48925e-011 -9.0549e-027   
     length 3.69232   
     axis 180 -30 -90   XYZ
    dof rx
    limits (-10.0 170.0)
  end
  begin
     id 20
     name lwrist
     direction 1 -4.49007e-011 -1.49005e-026   
     length 1.84616   
     axis 9.0955e-015 90 90   XYZ
    dof ry
    limits (-180.0 0.0)
 end
  begin
     id 21 
     name lhand
     direction 1 -4.49016e-011 -2.98023e-026   
     length 0.536598   
     axis 1.90115e-014 90 90   XYZ
    dof rx rz
    limits (-90.0 90.0)
           (-45.0 45.0)
  end
  begin
     id 22 
     name lfingers
     direction 1 -4.48924e-011 -5.9578e-026   
     length 0.432619   
     axis 3.80223e-014 90 90   XYZ
    dof rx
    limits (0.0 90.0)
  end
  begin
     id 23
     name lthumb
     direction 0.707107 -6.34947e-011 0.707107   
     length 0.621157   
     axis -90 45 -3.84942e-014   XYZ
    dof rx rz
    limits (-45.0 45.0)
           (-45.0 45.0)
  end
  begin
     id 24 
     name rclavicle
     direction -0.955495 0.276497 -0.102848   
     length 3.36357  
     axis 0 0 0   XYZ 
    dof ry rz
    limits (-10.0 20.0)
           (-20.0 0.0)
  end
  begin
     id 25 
     name rhumerus
     direction -1 -4.48961e-011 3.30983e-027  
     length 5.23431   
     axis 180 30 90   XYZ
    dof rx ry rz
    limits (-90.0 60.0)
           (-90.0 90.0)
           (-90.0 90.0)
  end
  begin
     id 26 
     name rradius
     direction -1 -4.48965e-011 -6.63263e-027   
     length 3.55301   
     axis 180 30 90   XYZ
    dof rx
    limits (-10.0 170.0)
  end
  begin
     id 27 
     name rwrist
     direction -1 -4.48942e-011 -1.48958e-026   
     length 1.77651   
     axis 9.0955e-015 -90 -90   XYZ
    dof ry
    limits (-180.0 0.0)
  end
  begin
     id 28
     name rhand
     direction -1 -4.48977e-011 -2.97966e-026   
     length 0.772522   
     axis 1.90115e-014 -90 -90   XYZ
    dof rx rz
    limits (-90.0 90.0)
           (-45.0 45.0)
  end
  begin
     id 29
     name rfingers
     direction -1 -4.49135e-011 -5.96389e-026   
     length 0.622827   
     axis 3.80223e-014 -90 -90   XYZ
    dof rx
    limits (0.0 90.0)
  end
  begin
     id 30
     name rthumb
     direction -0.707107 -6.34969e-011 0.707107   
     length 0.894259   
     axis -90 -45 3.84942e-014   XYZ
    dof rx rz
    limits (-45.0 45.0)
           (-45.0 45.0)
  end
:hierarchy
  begin
    root lhipjoint rhipjoint lowerback
    lhipjoint lfemur
    lfemur ltibia
    ltibia lfoot
    lfoot ltoes
    rhipjoint rfemur
    rfemur rtibia
    rtibia rfoot
    rfoot rtoes
    lowerback upperback
    upperback thorax
    thorax lowerneck lclavicle rclavicle
    lowerneck upperneck
    upperneck head
    lclavicle lhumerus
    lhumerus lradius
    lradius lwrist
    lwrist lhand lthumb
    lhand lfingers
    rclavicle rhumerus
    rhumerus rradius
    rradius rwrist
    rwrist rhand rthumb
    rhand rfingers
  end

#!OML:ASF F:\VICON\USERDATA\INSTALL\rory3\rory3.ASF
:FULLY-SPECIFIED
:DEGREES
1
root 15.7739 17.8907 -10.3174 1.99965 -16.9347 1.28172
lowerback 6.04825 -0.631927 -0.0391689
upperback -0.665148 -0.815817 0.743598
thorax -4.06865 -0.395802 0.86741
lowerneck -16.0532 -7.64926 -12.329
upperneck 24.7046 -9.52333 7.29781
head 11.7056 -4.63088 3.28597
rclavicle 2.00524e-014 1.82882e-014
rhumerus -32.6743 -7.18715 -84.1712
rradius 28.1255
rwrist 8.28354
rhand -16.8366 7.30278
rfingers 7.12502
rthumb 9.39299 -22.4679
lclavicle 2.00524e-014 1.82882e-014
lhumerus -32.6099 -0.558898 89.0435
lradius 29.5833
lwrist -6.73432
lhand -11.8242 30.0268
lfingers 7.12502
lthumb 14.2264 59.5196
rfemur -9.2081 0.521092 25.339
rtibia 30.1151
rfoot -18.3219 -6.0497
rtoes 8.09052
lfemur -6.78764 -5.6156 -20.4973
ltibia 24.0109
lfoot -14.4393 -2.59027
ltoes -6.53604
2
root 15.7662 17.8885 -10.3189 1.96458 -16.8276 1.35855
lowerback 6.04876 -0.655814 -0.139535
upperback -0.67199 -0.855439 0.734171
thorax -4.07413 -0.413275 0.917835
lowerneck -16.2502 -7.66779 -12.317
upperneck 25.0846 -9.52198 7.17877
head 11.8843 -4.64083 3.23774
rclavicle -1.5704e-014 -7.95139e-016
rhumerus -32.6909 -7.16353 -84.1864
rradius 28.189
rwrist 8.26947
rhand -16.5709 7.25063
rfingers 7.12502
rthumb 9.64936 -22.5084
lclavicle -1.5704e-014 -7.95139e-016
lhumerus -32.6552 -0.547966 89.0729
lradius 29.6075
lwrist -6.77734
lhand -11.9841 29.9688
lfingers 7.12502
lthumb 14.0723 59.4723
rfemur -9.21062 0.474948 25.2995
rtibia 30.1925
rfoot -18.3991 -6.11226
rtoes 8.21484
lfemur -6.7283 -5.54196 -20.5178
ltibia 23.9252
lfoot -14.3916 -2.79141
ltoes -6.44005
3
root 15.759 17.8887 -10.3201 1.95154 -16.7454 1.45509
lowerback 6.00831 -0.673269 -0.247675
upperback -0.708682 -0.886859 0.728141
thorax -4.08733 -0.426344 0.975054
lowerneck -15.9969 -7.50725 -12.4962
upperneck 25.209 -9.35822 7.43418
head 11.8871 -4.56264 3.40081
rclavicle 3.75703e-014 3.57812e-015
rhumerus -32.7684 -7.00992 -84.2411
rradius 28.2517
rwrist 7.94493
rhand -16.5118 7.32328
rfingers 7.12502
rthumb 9.70635 -22.4331
lclavicle 3.75703e-014 3.57812e-015
lhumerus -32.7989 -0.451265 89.0863
lradius 29.7113
lwrist -6.8947
lhand -12.1031 29.9528
lfingers 7.12502
lthumb 13.9576 59.4642
rfemur -9.22558 0.404041 25.2292
rtibia 30.2326
rfoot -18.2743 -6.25743
rtoes 6.36095
lfemur -6.71741 -5.56371 -20.571
ltibia 23.8978
lfoot -14.3971 -2.81732
ltoes -6.21038
4
root 15.7528 17.8914 -10.3187 1.96822 -16.7111 1.45787
lowerback 5.91382 -0.667232 -0.211073
upperback -0.675596 -0.877014 0.712879
thorax -4.00068 -0.422922 0.936035
lowerneck -15.8487 -7.26046 -12.4798
upperneck 25.3217 -9.08432 7.60173
head 11.8754 -4.42406 3.51484
rclavicle -2.18663e-015 7.95139e-016
rhumerus -32.7245 -7.09891 -84.1941
rradius 28.2218
rwrist 8.1071
rhand -16.6915 7.35814
rfingers 7.12502
rthumb 9.53303 -22.4062
lclavicle -2.18663e-015 7.95139e-016
lhumerus -32.732 -0.436535 89.0442
lradius 29.7316
lwrist -7.06354
lhand -12.0935 30.2639
lfingers 7.12502
lthumb 13.9669 59.7748
rfemur -9.24955 0.440392 25.2527
rtibia 30.2785
rfoot -17.9691 -6.53497
rtoes 2.38822
lfemur -6.71364 -5.64091 -20.5397
ltibia 23.8808
lfoot -14.4107 -2.85298
ltoes -6.06976
5
root 15.7464 17.8908 -10.3188 1.89697 -16.7259 1.51603
lowerback 5.93352 -0.663336 -0.28686
upperback -0.61721 -0.877716 0.70882
thorax -3.95018 -0.422032 0.97415
lowerneck -16.0245 -7.04937 -12.2653
upperneck 25.7026 -8.79096 7.41543
head 12.0014 -4.29332 3.46043
rclavicle -1.00635e-014 -1.59028e-015
rhumerus -32.6237 -7.07229 -84.1797
rradius 28.2122
rwrist 8.25782
rhand -16.7478 7.46052
rfingers 7.12502
rthumb 9.47873 -22.3063
lclavicle -1.00635e-014 -1.59028e-015
lhumerus -32.6463 -0.302403 88.9643
lradius 29.7921
lwrist -7.37114
lhand -11.875 30.5898
lfingers 7.12502
lthumb 14.1775 60.086
rfemur -9.20281 0.466368 25.2156
rtibia 30.3222
rfoot -17.8601 -6.61972
rtoes 0.579097
lfemur -6.65979 -5.70896 -20.5754
ltibia 23.9052
lfoot -14.4495 -2.89463
ltoes -6.05141
6
root 15.7403 17.8873 -10.3202 1.86167 -16.7694 1.55433
lowerback 5.9659 -0.675391 -0.36126
upperback -0.619427 -0.898588 0.724226
thorax -3.96898 -0.430515 1.03428
lowerneck -16.2093 -6.87002 -12.1306
upperneck 26.1645 -8.51546 7.19724
head 12.1687 -4.18354 3.40474
rclavicle -1.23246e-014 7.95139e-016
rhumerus -32.6155 -6.75667 -84.3177
rradius 28.3044
rwrist 7.76234
rhand -16.5334 7.81339
rfingers 7.12502
rthumb 9.68559 -21.9439
lclavicle -1.23246e-014 7.95139e-016
lhumerus -32.6747 -0.190999 88.9748
lradius 29.8456
lwrist -7.25491
lhand -12.2021 30.7214
lfingers 7.12502
lthumb 13.8622 60.2395
rfemur -9.206 0.293641 25.1703
rtibia 30.3699
rfoot -17.9182 -6.4247
rtoes 0.628565
lfemur -6.65792 -5.69086 -20.5946
ltibia 23.9737
lfoot -14.463 -2.89345
ltoes -6.54778
7
root 15.7347 17.8847 -10.3193 1.92975 -16.7947 1.57948
lowerback 5.88806 -0.651758 -0.378416
upperback -0.683086 -0.868174 0.721469
thorax -3.99149 -0.41476 1.03775
lowerneck -16.1948 -6.74452 -12.103
upperneck 26.5269 -8.35119 7.13316
head 12.2848 -4.12006 3.40997
rclavicle 1.62506e-014 -1.23246e-014
rhumerus -32.7152 -6.57244 -84.4319
rradius 28.3963
rwrist 7.16914
rhand -16.381 8.03894
rfingers 7.12502
rthumb 9.83261 -21.7115
lclavicle 1.62506e-014 -1.23246e-014
lhumerus -32.6926 -0.260602 89.0637
lradius 29.7432
lwrist -6.97205
lhand -12.7446 30.5763
lfingers 7.12502
lthumb 13.3393 60.1294
rfemur -9.3134 0.117463 25.1308
rtibia 30.413
rfoot -17.9668 -6.26465
rtoes 0.443485
lfemur -6.77826 -5.67232 -20.6011
ltibia 24.0775
lfoot -14.4798 -2.85242
ltoes -7.18552
8
root 15.7257 17.8818 -10.3243 1.8781 -16.7362 1.63392
lowerback 6.01548 -0.626013 -0.47296
upperback -0.710372 -0.84102 0.71548
thorax -4.09095 -0.398592 1.0843
lowerneck -16.373 -6.64477 -12.1526
upperneck 27.0296 -8.21459 7.16617
head 12.5099 -4.06175 3.45937
rclavicle 7.97623e-015 -3.97569e-015
rhumerus -32.7648 -6.65902 -84.4084
rradius 28.4609
rwrist 7.18856
rhand -16.2106 8.04925
rfingers 7.12502
rthumb 9.99699 -21.6933
lclavicle 7.97623e-015 -3.97569e-015
lhumerus -32.6299 -0.191758 89.0566
lradius 29.374
lwrist -7.53922
lhand -13.6068 29.315
lfingers 7.12502
lthumb 12.5082 58.9207
rfemur -9.29044 0.121248 25.1184
rtibia 30.4259
rfoot -17.9842 -6.32952
rtoes 0.397749
lfemur -6.87083 -5.60862 -20.6002
ltibia 24.2772
lfoot -14.5154 -2.96944
ltoes -7.18483
9
root 15.7165 17.8795 -10.3233 1.8523 -16.6549 1.57134
lowerback 6.08138 -0.632346 -0.401498
upperback -0.7048 -0.84453 0.707989
thorax -4.1234 -0.401884 1.03766
lowerneck -16.7153 -6.51716 -12.0343
upperneck 27.6399 -8.02537 7.04543
head 12.7925 -3.97978 3.42959
rclavicle -8.82107e-015 -1.23246e-014
rhumerus -32.8047 -6.61609 -84.4685
rradius 28.6046
rwrist 7.25961
rhand -15.9558 7.98464
rfingers 7.12502
rthumb 10.2428 -21.746
lclavicle -8.82107e-015 -1.23246e-014
lhumerus -32.653 0.001675 88.8775
lradius 28.7075
lwrist -9.36925
lhand -15.4794 26.0227
lfingers 7.12502
lthumb 10.7023 55.7301
rfemur -9.20718 0.0110179 25.2036
rtibia 30.3821
rfoot -18.0142 -6.26566
rtoes 0.454216
lfemur -6.97839 -5.57384 -20.4909
ltibia 24.5816
lfoot -14.5701 -3.09645
ltoes -7.27192
10
root 15.7078 17.8766 -10.3356 1.89883 -16.5471 1.34848
lowerback 6.33256 -0.644839 -0.239089
upperback -0.776565 -0.844969 0.789348
thorax -4.3408 -0.40367 1.03512
lowerneck -16.8506 -6.40776 -12.0272
upperneck 28.1075 -7.86767 6.99574
head 12.9907 -3.9187 3.44304
rclavicle 3.24267e-014 1.19271e-015
rhumerus -32.9575 -6.38675 -84.5358
rradius 28.8357
rwrist 6.98174
rhand -15.9078 7.69953
rfingers 7.12502
rthumb 10.2891 -22.0288
lclavicle 3.24267e-014 1.19271e-015
lhumerus -32.8128 0.0649156 88.8335
lradius 28.8827
lwrist -9.49208
lhand -15.4051 25.8356
lfingers 7.12502
lthumb 10.774 55.5393
rfemur -9.1987 0.112787 25.5175
rtibia 30.3031
rfoot -17.9388 -6.45642
rtoes 0.620172
lfemur -7.2189 -5.51197 -20.1654
ltibia 24.9499
lfoot -14.6251 -3.31668
ltoes -7.47969
11
root 15.7018 17.8761 -10.3436 1.91366 -16.4246 1.17597
lowerback 6.51126 -0.670529 -0.107138
upperback -0.818826 -0.863622 0.891959
thorax -4.48573 -0.414137 1.07231
lowerneck -16.8184 -6.28616 -12.0841
upperneck 28.4545 -7.68415 6.94408
head 13.1061 -3.85646 3.47244
rclavicle 2.32578e-014 -9.14409e-015
rhumerus -33.0549 -6.17967 -84.5132
rradius 28.9976
rwrist 6.75289
rhand -15.9949 7.52522
rfingers 7.12502
rthumb 10.2051 -22.2072
lclavicle 2.32578e-014 -9.14409e-015
lhumerus -32.9004 0.149757 88.887
lradius 28.8989
lwrist -9.55967
lhand -15.7201 25.4309
lfingers 7.12502
lthumb 10.4702 55.1502
rfemur -9.15472 0.112294 25.7537
rtibia 30.2154
rfoot -18.0875 -6.3893
rtoes 3.38567
lfemur -7.43044 -5.33312 -19.9091
ltibia 25.3506
lfoot -14.7622 -3.61483
ltoes -7.54644
12
root 15.6956 17.876 -10.3442 1.86045 -16.2837 1.22197
lowerback 6.524 -0.66839 -0.147686
upperback -0.75335 -0.864138 0.898189
thorax -4.42413 -0.413758 1.10106
lowerneck -17.0248 -6.21796 -11.9419
upperneck 28.8637 -7.55762 6.72587
head 13.288 -3.81403 3.38862
rclavicle 1.01877e-015 5.1684e-015
rhumerus -33.0044 -6.24252 -84.4547
rradius 29.0674
rwrist 6.68326
rhand -16.1528 7.63565
rfingers 7.12502
rthumb 10.0528 -22.1042
lclavicle 1.01877e-015 5.1684e-015
lhumerus -32.7373 0.0222515 88.9926
lradius 28.9318
lwrist -9.24104
lhand -15.6263 25.5772
lfingers 7.12502
lthumb 10.5607 55.2919
rfemur -9.07291 0.0627661 25.7313
rtibia 30.1475
rfoot -18.4526 -6.22354
rtoes 7.84447
lfemur -7.63046 -5.11984 -19.9146
ltibia 25.7916
lfoot -14.8682 -3.89812
ltoes -7.62131
